<svg xmlns="http://www.w3.org/2000/svg" viewBox="0 0 1932 1122" fill="#1463b8" fill-rule="evenodd">
  <path d="M 30.0 736.5 Q 37.0 753.0 54.0 766.5 Q 71.0 780.0 86.5 803.0 Q 102.0 826.0 130.0 850.0 Q 158.0 874.0 183.5 885.5 Q 209.0 897.0 256.5 909.0 Q 304.0 921.0 364.5 929.5 Q 425.0 938.0 481.0 935.5 Q 537.0 933.0 601.5 917.0 Q 666.0 901.0 685.0 933.5 Q 704.0 966.0 733.0 986.0 Q 762.0 1006.0 808.5 1028.0 Q 855.0 1050.0 894.0 1060.0 Q 933.0 1070.0 969.0 1069.5 Q 1005.0 1069.0 1041.0 1056.5 Q 1077.0 1044.0 1103.5 1017.5 Q 1130.0 991.0 1145.5 959.5 Q 1161.0 928.0 1292.0 922.5 Q 1423.0 917.0 1498.0 901.5 Q 1573.0 886.0 1626.0 855.0 Q 1679.0 824.0 1715.5 786.0 Q 1752.0 748.0 1780.5 751.0 Q 1809.0 754.0 1817.5 746.5 Q 1826.0 739.0 1823.5 730.0 Q 1821.0 721.0 1783.5 704.5 Q 1746.0 688.0 1718.5 660.0 Q 1691.0 632.0 1679.5 626.0 Q 1668.0 620.0 1660.0 625.0 Q 1652.0 630.0 1652.0 643.0 Q 1652.0 656.0 1674.0 685.5 Q 1696.0 715.0 1684.5 733.5 Q 1673.0 752.0 1629.0 788.5 Q 1585.0 825.0 1535.0 844.0 Q 1485.0 863.0 1401.0 873.5 Q 1317.0 884.0 1256.5 882.5 Q 1196.0 881.0 1158.5 871.5 Q 1121.0 862.0 1076.0 835.0 Q 1031.0 808.0 1011.5 788.0 Q 992.0 768.0 968.0 731.0 Q 944.0 694.0 951.5 562.0 Q 959.0 430.0 975.5 416.5 Q 992.0 403.0 1027.5 387.5 Q 1063.0 372.0 1115.0 331.0 Q 1167.0 290.0 1183.5 271.5 Q 1200.0 253.0 1210.5 220.5 Q 1221.0 188.0 1221.5 171.0 Q 1222.0 154.0 1215.5 137.5 Q 1209.0 121.0 1178.0 95.5 Q 1147.0 70.0 1117.5 53.5 Q 1088.0 37.0 1030.5 18.5 Q 973.0 0.0 904.5 0.0 Q 836.0 0.0 831.5 4.5 Q 827.0 9.0 770.0 25.0 Q 713.0 41.0 673.5 67.0 Q 634.0 93.0 620.5 108.0 Q 607.0 123.0 594.5 151.0 Q 582.0 179.0 591.5 217.0 Q 601.0 255.0 628.0 284.5 Q 655.0 314.0 685.0 334.0 Q 715.0 354.0 789.5 392.0 Q 864.0 430.0 867.5 492.0 Q 871.0 554.0 868.5 619.0 Q 866.0 684.0 853.0 707.5 Q 840.0 731.0 799.0 768.5 Q 758.0 806.0 742.0 811.5 Q 726.0 817.0 703.0 833.5 Q 680.0 850.0 624.0 868.5 Q 568.0 887.0 525.5 893.0 Q 483.0 899.0 447.0 897.5 Q 411.0 896.0 336.5 880.5 Q 262.0 865.0 210.0 838.0 Q 158.0 811.0 138.5 786.0 Q 119.0 761.0 120.0 744.5 Q 121.0 728.0 138.0 705.0 Q 155.0 682.0 151.0 666.0 Q 147.0 650.0 129.0 651.5 Q 111.0 653.0 97.0 673.0 Q 83.0 693.0 53.0 706.5 Q 23.0 720.0 30.0 736.5 Z"/>
</svg>