<?xml version="1.0" standalone="no"?>
<!DOCTYPE svg PUBLIC "-//W3C//DTD SVG 20010904//EN"
 "http://www.w3.org/TR/2001/REC-SVG-20010904/DTD/svg10.dtd">
<svg version="1.0" xmlns="http://www.w3.org/2000/svg"
 width="962.000000pt" height="792.000000pt" viewBox="0 0 962.000000 792.000000"
 preserveAspectRatio="xMidYMid meet">

<g transform="translate(0.000000,792.000000) scale(0.100000,-0.100000)"
fill="#1463b8" stroke="none">
<path d="M2037 6400 c-365 -77 -639 -336 -739 -697 -18 -65 -22 -105 -22 -238
0 -190 16 -263 93 -420 285 -580 1046 -714 1513 -266 192 183 291 413 292 681
0 147 -18 243 -71 370 -178 423 -626 663 -1066 570z m646 -404 c48 -18 74 -41
99 -90 60 -118 -37 -263 -169 -253 -96 7 -165 81 -165 177 1 76 39 132 112
164 43 19 74 19 123 2z"/>
<path d="M6759 6405 c-355 -67 -648 -330 -747 -670 -62 -210 -50 -428 35 -634
172 -420 621 -661 1061 -571 367 75 644 334 744 697 32 114 31 363 0 478 -31
113 -110 266 -183 358 -122 153 -321 281 -509 327 -111 28 -297 35 -401 15z
m494 -431 c70 -46 95 -140 58 -219 -22 -48 -44 -69 -94 -90 -50 -21 -93 -19
-144 6 -136 66 -129 255 12 321 51 24 115 17 168 -18z"/>
<path d="M4515 4310 c-27 -4 -63 -12 -80 -19 -16 -6 -79 -27 -140 -47 -187
-61 -319 -151 -375 -255 -28 -53 -34 -74 -34 -124 0 -173 112 -298 403 -454
159 -85 208 -124 246 -192 26 -49 28 -60 33 -208 5 -193 -9 -345 -38 -407 -23
-47 -157 -186 -218 -227 -103 -66 -216 -127 -290 -156 -243 -93 -460 -111
-712 -58 -166 35 -229 56 -347 113 -114 55 -207 139 -218 197 -9 48 -2 73 35
128 31 46 39 96 18 117 -26 26 -60 13 -117 -44 -31 -31 -75 -65 -98 -75 -51
-22 -69 -50 -52 -81 14 -27 116 -142 207 -234 110 -111 225 -159 512 -211 205
-37 403 -37 585 0 206 42 238 37 300 -50 51 -71 101 -109 235 -177 157 -81
274 -118 391 -124 113 -5 180 7 263 49 77 39 126 85 183 172 66 101 123 119
438 137 525 29 723 95 974 323 86 78 130 101 180 91 41 -9 83 12 79 38 -2 17
-26 35 -97 73 -55 30 -121 75 -161 112 -37 34 -80 68 -95 75 -24 11 -29 10
-41 -7 -18 -25 -9 -57 38 -129 57 -89 54 -106 -40 -196 -165 -161 -302 -223
-587 -267 -155 -24 -534 -25 -620 -1 -198 55 -404 209 -479 358 -39 76 -47
383 -16 620 16 121 26 135 158 205 221 117 402 273 441 380 57 154 50 218 -32
297 -196 188 -552 299 -832 258z"/>
</g>
</svg>
